<svg width="90" height="21" viewBox="0 0 90 21" fill="none" xmlns="http://www.w3.org/2000/svg">
<g clip-path="url(#clip0_175_691)">
<path d="M19.4283 8.75245H13.3486L18.6137 5.71152L17.6441 4.03173L12.3778 7.0716L15.4188 1.80642L13.7379 0.835691L10.698 6.10192V0.0211182H8.75762V6.10192L5.71775 0.835691L4.0369 1.80642L7.07783 7.0716L1.8116 4.03173L0.841917 5.71152L6.10709 8.75245H0.0273438V10.6918H6.10709L0.841917 13.7327L1.8116 15.4125L8.75762 11.403V17.4827H1.8116V19.4231H17.6441V17.4827H10.698V11.403L17.6441 15.4125L18.6137 13.7327L13.3486 10.6918H19.4283V8.75245Z" fill="#27364E"/>
<path d="M37.563 12.7029C37.563 14.2328 36.5163 15.3429 35.0749 15.3429C33.6336 15.3429 32.5869 14.2075 32.5869 12.7029C32.5869 11.1982 33.6336 10.0323 35.0749 10.0323C36.5163 10.0323 37.563 11.155 37.563 12.7029ZM35.0897 8.78723C32.9267 8.78723 31.2954 10.4702 31.2954 12.7029C31.2954 14.9356 32.9267 16.5879 35.0897 16.5879C37.2528 16.5879 38.8534 14.9535 38.8534 12.7029C38.8534 10.4523 37.2348 8.78723 35.0897 8.78723Z" fill="#27364E"/>
<path d="M45.805 12.688C45.805 14.2264 44.7899 15.3428 43.3918 15.3428C41.9938 15.3428 40.9945 14.2338 40.9945 12.7629C40.9945 11.9631 41.2108 11.3047 41.6361 10.8056C42.0666 10.2855 42.6416 10.0333 43.3918 10.0333C44.7899 10.0333 45.805 11.1496 45.805 12.688ZM43.6197 8.78714C42.5382 8.78714 41.634 9.21975 40.9945 10.0396V9.014H39.7041V18.6011H40.9945V15.3343C41.6329 16.1542 42.5382 16.5868 43.6197 16.5868C45.6013 16.5868 47.0965 14.9102 47.0965 12.6859C47.0965 10.4617 45.6013 8.78503 43.6197 8.78503" fill="#27364E"/>
<path d="M54.0012 12.7029C54.0012 14.2328 52.9545 15.3429 51.5132 15.3429C50.0718 15.3429 49.0251 14.2075 49.0251 12.7029C49.0251 11.1982 50.0718 10.0323 51.5132 10.0323C52.9545 10.0323 54.0012 11.155 54.0012 12.7029ZM51.5279 8.78723C49.3649 8.78723 47.7336 10.4702 47.7336 12.7029C47.7336 14.9356 49.3649 16.5879 51.5279 16.5879C53.691 16.5879 55.2917 14.9535 55.2917 12.7029C55.2917 10.4523 53.6731 8.78723 51.5279 8.78723Z" fill="#27364E"/>
<path d="M31.6926 5.68396H29.9115L24.5313 10.7328V5.68396H23.2556V16.3758H24.5313V12.4474L25.9104 11.157L30.0624 16.361L30.074 16.3758H31.72L26.8473 10.2538L31.6926 5.68396Z" fill="#27364E"/>
<path d="M72.1509 12.7029C72.1509 14.2328 71.1042 15.3429 69.6628 15.3429C68.2215 15.3429 67.1748 14.2075 67.1748 12.7029C67.1748 11.1982 68.2215 10.0323 69.6628 10.0323C71.1042 10.0323 72.1509 11.155 72.1509 12.7029ZM69.6776 8.78723C67.5146 8.78723 65.8833 10.4702 65.8833 12.7029C65.8833 14.9356 67.5146 16.5879 69.6776 16.5879C71.8407 16.5879 73.4413 14.9535 73.4413 12.7029C73.4413 10.4523 71.8227 8.78723 69.6776 8.78723Z" fill="#27364E"/>
<path d="M80.3937 12.688C80.3937 14.2264 79.3786 15.3428 77.9805 15.3428C76.5825 15.3428 75.5832 14.2338 75.5832 12.7629C75.5832 11.9631 75.7995 11.3047 76.2248 10.8056C76.6553 10.2855 77.2303 10.0333 77.9805 10.0333C79.3786 10.0333 80.3937 11.1496 80.3937 12.688ZM78.2074 8.78714C77.1259 8.78714 76.2216 9.21975 75.5822 10.0396V9.014H74.2917V18.6011H75.5822V15.3343C76.2206 16.1542 77.1259 16.5868 78.2074 16.5868C80.189 16.5868 81.6841 14.9102 81.6841 12.6859C81.6841 10.4617 80.19 8.78503 78.2074 8.78503" fill="#27364E"/>
<path d="M88.5898 12.7029C88.5898 14.2328 87.5431 15.3429 86.1018 15.3429C84.6605 15.3429 83.6138 14.2075 83.6138 12.7029C83.6138 11.1982 84.6605 10.0323 86.1018 10.0323C87.5431 10.0323 88.5898 11.155 88.5898 12.7029ZM86.1166 8.78723C83.9535 8.78723 82.3223 10.4702 82.3223 12.7029C82.3223 14.9356 83.9535 16.5879 86.1166 16.5879C88.2796 16.5879 89.8803 14.9535 89.8803 12.7029C89.8803 10.4523 88.2617 8.78723 86.1166 8.78723Z" fill="#27364E"/>
<path d="M66.2801 5.68396H64.499L59.1199 10.7328V5.68396H57.8442V16.3758H59.1199V12.4474L60.499 11.157L64.6499 16.361L64.6626 16.3758H66.3086L61.4349 10.2538L66.2801 5.68396Z" fill="#27364E"/>
</g>
<defs>
<clipPath id="clip0_175_691">
<rect width="89.8984" height="20.6809" fill="white"/>
</clipPath>
</defs>
</svg>
