
<svg width="80" height="80" viewBox="0 0 80 80" fill="none" xmlns="http://www.w3.org/2000/svg">
<rect x="4" y="4" width="72" height="72" rx="36" fill="#EDEEF1"/>
<rect x="4" y="4" width="72" height="72" rx="36" stroke="#F7F8F8" stroke-width="8"/>
<path fill-rule="evenodd" clip-rule="evenodd" d="M44.948 22.5318H32.7567C31.9196 22.5317 31.1974 22.5317 30.6025 22.5803C29.9747 22.6316 29.3503 22.7449 28.7494 23.051C27.853 23.5078 27.1242 24.2366 26.6674 25.133C26.3613 25.7339 26.248 26.3583 26.1967 26.9861C26.1481 27.5809 26.1482 28.3031 26.1482 29.1402V50.8597C26.1482 51.6968 26.1481 52.4191 26.1967 53.0139C26.248 53.6417 26.3613 54.2661 26.6674 54.867C27.1242 55.7634 27.853 56.4922 28.7494 56.949C29.3503 57.2551 29.9747 57.3684 30.6025 57.4197C31.1974 57.4683 31.9195 57.4682 32.7566 57.4682H44.9481C45.7852 57.4682 46.5073 57.4683 47.1022 57.4197C47.73 57.3684 48.3544 57.2551 48.9553 56.949C49.8517 56.4922 50.5805 55.7634 51.0373 54.867C51.3434 54.2661 51.4567 53.6417 51.508 53.0139C51.5566 52.4191 51.5565 51.697 51.5565 50.8599V29.1403C51.5565 28.3032 51.5566 27.5809 51.508 26.9861C51.4567 26.3583 51.3434 25.7339 51.0373 25.133C50.5805 24.2366 49.8517 23.5078 48.9553 23.051C48.3544 22.7449 47.73 22.6316 47.1022 22.5803C46.5074 22.5317 45.7851 22.5317 44.948 22.5318ZM38.8524 46.3521C37.5368 46.3521 36.4703 47.4185 36.4703 48.7341C36.4703 50.0497 37.5368 51.1161 38.8524 51.1161C40.1679 51.1161 41.2344 50.0497 41.2344 48.7341C41.2344 47.4185 40.1679 46.3521 38.8524 46.3521Z" fill="white" stroke="black" stroke-width="2.19147" stroke-linecap="round" stroke-linejoin="round"/>
<rect x="36.9473" y="30.4716" width="23.2566" height="9.91826" rx="2.73607" fill="#38B64A"/>
<path d="M42.6886 34.1799L43.1472 35.0053L41.9549 35.4364L43.1472 35.8674L42.6703 36.7204L41.6797 35.9041L41.8907 37.1698H40.9368L41.1386 35.9041L40.1572 36.7388L39.6528 35.8583L40.8451 35.4272L39.6619 35.0145L40.1297 34.1707L41.1478 34.9778L40.9368 33.7029H41.8998L41.6797 34.9778L42.6886 34.1799ZM47.4357 34.1799L47.8943 35.0053L46.702 35.4364L47.8943 35.8674L47.4173 36.7204L46.4268 35.9041L46.6378 37.1698H45.6839L45.8857 35.9041L44.9043 36.7388L44.3999 35.8583L45.5922 35.4272L44.409 35.0145L44.8768 34.1707L45.8948 34.9778L45.6839 33.7029H46.6469L46.4268 34.9778L47.4357 34.1799ZM52.1828 34.1799L52.6414 35.0053L51.449 35.4364L52.6414 35.8674L52.1644 36.7204L51.1739 35.9041L51.3848 37.1698H50.431L50.6328 35.9041L49.6514 36.7388L49.1469 35.8583L50.3393 35.4272L49.1561 35.0145L49.6239 34.1707L50.6419 34.9778L50.431 33.7029H51.394L51.1739 34.9778L52.1828 34.1799ZM56.9298 34.1799L57.3884 35.0053L56.1961 35.4364L57.3884 35.8674L56.9115 36.7204L55.921 35.9041L56.1319 37.1698H55.1781L55.3798 35.9041L54.3985 36.7388L53.894 35.8583L55.0863 35.4272L53.9032 35.0145L54.3709 34.1707L55.389 34.9778L55.1781 33.7029H56.1411L55.921 34.9778L56.9298 34.1799Z" fill="white"/>
</svg>
